<svg width="24" height="24" viewBox="0 0 24 24" fill="none" xmlns="http://www.w3.org/2000/svg">
    <path d="M12 6.96a5.04 5.04 0 1 0 0 10.08 5.04 5.04 0 0 0 0-10.08zm0 8.4a3.36 3.36 0 1 1 0-6.72 3.36 3.36 0 0 1 0 6.72zM16.62 1.5H7.38A5.887 5.887 0 0 0 1.5 7.38v9.24a5.887 5.887 0 0 0 5.88 5.88h9.24a5.886 5.886 0 0 0 5.88-5.88V7.38a5.887 5.887 0 0 0-5.88-5.88zm4.2 15.12a4.205 4.205 0 0 1-4.2 4.2H7.38a4.205 4.205 0 0 1-4.2-4.2V7.38a4.205 4.205 0 0 1 4.2-4.2h9.24a4.205 4.205 0 0 1 4.2 4.2v9.24zm-2.1-10.08a1.26 1.26 0 1 1-2.52 0 1.26 1.26 0 0 1 2.52 0z" fill="#FBFDFD"/>
</svg>
