<svg width="25" height="24" viewBox="0 0 25 24" fill="none" xmlns="http://www.w3.org/2000/svg">
    <path d="M4.22 1.5a2.404 2.404 0 0 0-2.387 2.386v16.228A2.403 2.403 0 0 0 4.22 22.5h16.227a2.403 2.403 0 0 0 2.386-2.386V3.886A2.403 2.403 0 0 0 20.447 1.5H4.22zm0 1.91h16.227c.272 0 .477.204.477.476v16.228a.467.467 0 0 1-.477.477H4.22a.467.467 0 0 1-.478-.477V3.886c0-.272.206-.477.478-.477zm2.804 1.64a1.64 1.64 0 1 0-.079 3.28 1.64 1.64 0 0 0 .08-3.28zm8.62 4.355c-1.368 0-2.278.749-2.654 1.461h-.06V9.614h-2.685v9.068h2.804v-4.475c0-1.182.235-2.326 1.7-2.326 1.444 0 1.463 1.334 1.463 2.386v4.415h2.803V13.7c0-2.438-.518-4.295-3.37-4.295h-.001zm-9.992.209v9.068h2.834V9.614H5.652z" fill="#FBFDFD"/>
</svg>
