<svg width="101" height="101" viewBox="0 0 101 101" fill="none" xmlns="http://www.w3.org/2000/svg">
    <g clip-path="url(#a)">
        <path d="M50.5 100.5c27.614 0 50-22.386 50-50S78.114.5 50.5.5s-50 22.386-50 50 22.386 50 50 50z" fill="#A4DDD2"/>
        <path d="M49.633 95.346c24.768 0 44.846-20.078 44.846-44.846 0-24.768-20.078-44.846-44.846-44.846-24.767 0-44.846 20.078-44.846 44.846 0 24.768 20.079 44.846 44.846 44.846z" stroke="#fff" stroke-width=".55" stroke-miterlimit="10"/>
        <path d="M46.456 54.423v1.649c0 5.379-.927 12.182-9.85 12.182-8.092 0-9.673-5.334-9.673-12.082V33.441c0-7.043 3.114-11.376 9.769-11.376 8.052 0 9.553 5.496 9.553 11.57v1.905H40.19v-2.524c0-3.227-.64-5.457-3.528-5.457-2.79 0-3.59 2.069-3.59 5.517v23.577c0 3.594.752 6.161 3.696 6.161s3.576-2.426 3.576-6.143v-2.248h6.112zM53.607 22.065h9.004c9.604 0 11.462 5.537 11.462 13.589v17.939c0 7.074-1.13 14.668-11.596 14.668h-8.87V22.065zm6.026 40.887h2.428c4.929 0 5.863-3.077 5.863-8.392V35.08c0-4.706-.814-7.658-5.874-7.658h-2.417v35.53zM28.541 71.772h1.23c1.1 0 1.508.577 1.508 1.537v.319c0 .993-.3 1.295-.656 1.427.383.12.8.458.8 1.418v.522c0 1.231-.425 1.841-1.628 1.841H28.54v-7.064zm1.197 2.99c.632 0 .823-.257.823-1.078v-.317c0-.641-.235-.956-.841-.956h-.446v2.35h.464zm-.464 3.44h.453c.76 0 .949-.366.949-1.222v-.489c0-.77-.27-1.1-.951-1.1h-.45v2.811zM33.391 71.772v5.496c0 .585.205.982.733.982s.733-.376.733-.977v-5.501h.757v5.47c0 1.1-.49 1.69-1.497 1.69-.979 0-1.466-.55-1.466-1.673v-5.487h.74zM39.397 75.42h-1.585v2.73h1.8l-.103.69H37.06v-7.069h2.426v.697h-1.675v2.257h1.585v.694zM40.65 78.84v-7.069h.89c.382 1.309 1.364 5.011 1.48 5.589h.016a69.938 69.938 0 0 1-.053-3.095v-2.493h.709v7.064h-.867a284.26 284.26 0 0 1-1.523-5.776h-.01c.047.852.066 1.98.066 3.255v2.521l-.708.004zM45.874 76.586l-.337 2.254h-.762l1.163-7.069h1.072l1.209 7.065h-.788l-.366-2.253-1.191.003zm1.1-.692c-.248-1.556-.426-2.758-.494-3.425h-.03c-.027.55-.28 2.135-.47 3.425h.993zM49.892 76.852v.416c0 .665.229 1.02.733 1.02.503 0 .705-.366.705-1.139 0-.826-.183-1.149-.927-1.728s-1.138-.947-1.138-1.99c0-.894.268-1.753 1.376-1.747 1.052 0 1.33.705 1.33 1.603v.317h-.747v-.308c0-.586-.114-.966-.598-.966-.483 0-.61.425-.61.979 0 .657.13.907.779 1.396.98.742 1.282 1.156 1.282 2.329 0 .993-.283 1.898-1.476 1.898-1.14 0-1.466-.748-1.466-1.679v-.404l.757.003zM55.903 71.772v7.064h-.753v-7.064h.753zM57.393 71.772h1.282c1.525 0 1.719.943 1.719 2.066v2.789c0 1.084-.167 2.21-1.767 2.21h-1.234V71.77zm.75 6.412h.437c.855 0 1.055-.484 1.055-1.409V73.75c0-.815-.146-1.317-1.048-1.317h-.434l-.01 5.751zM64.076 75.42h-1.584v2.73h1.799l-.103.69h-2.442v-7.069h2.426v.697h-1.675v2.257h1.58v.694zM66.253 76.586l-.344 2.254h-.76l1.166-7.069h1.072l1.207 7.065h-.787l-.367-2.253-1.187.003zm1.1-.692c-.248-1.556-.424-2.758-.492-3.425h-.036c-.026.55-.279 2.135-.47 3.425h.997zM70.271 76.852v.416c0 .665.23 1.02.733 1.02.502 0 .705-.366.705-1.139 0-.826-.183-1.149-.925-1.728s-1.14-.947-1.14-1.99c0-.894.268-1.753 1.376-1.747 1.054 0 1.33.705 1.33 1.603v.317h-.745v-.308c0-.586-.116-.966-.6-.966-.483 0-.61.425-.61.979 0 .657.133.907.78 1.396.981.742 1.29 1.156 1.29 2.329 0 .993-.283 1.898-1.474 1.898-1.141 0-1.466-.748-1.466-1.679v-.404l.746.003z" fill="#fff"/>
    </g>
    <defs>
        <clipPath id="a">
            <path fill="#fff" transform="translate(.5 .5)" d="M0 0h100v100H0z"/>
        </clipPath>
    </defs>
</svg>
