<svg width="32" height="32" viewBox="0 0 32 32" fill="none" xmlns="http://www.w3.org/2000/svg">
    <path d="M28.522 14.5H3.478C2.662 14.5 2 15.138 2 15.925v.15c0 .787.662 1.425 1.478 1.425h25.044c.816 0 1.478-.638 1.478-1.425v-.15c0-.787-.662-1.425-1.478-1.425zM28.522 21.91H3.478c-.816 0-1.478.638-1.478 1.425v.15c0 .787.662 1.425 1.478 1.425h25.044c.816 0 1.478-.638 1.478-1.425v-.15c0-.787-.662-1.425-1.478-1.425zM28.522 7.09H3.478C2.662 7.09 2 7.728 2 8.515v.15c0 .787.662 1.425 1.478 1.425h25.044c.816 0 1.478-.638 1.478-1.425v-.15c0-.787-.662-1.425-1.478-1.425z" fill="#348C7B"/>
</svg>
