<svg width="25" height="24" viewBox="0 0 25 24" fill="none" xmlns="http://www.w3.org/2000/svg">
    <path fill-rule="evenodd" clip-rule="evenodd" d="M19.77 4.924A9.904 9.904 0 0 0 12.72 2c-5.495 0-9.968 4.472-9.97 9.968 0 1.757.459 3.471 1.33 4.984l-1.413 5.164 5.284-1.387a9.972 9.972 0 0 0 4.764 1.214h.004c5.493 0 9.966-4.472 9.968-9.968a9.91 9.91 0 0 0-2.917-7.051zM12.72 20.26h-.004c-1.484 0-2.94-.4-4.217-1.156l-.303-.18-3.135.822.836-3.056-.197-.313a8.27 8.27 0 0 1-1.267-4.41c.003-4.568 3.72-8.285 8.29-8.285a8.231 8.231 0 0 1 5.857 2.43 8.238 8.238 0 0 1 2.424 5.862c-.002 4.568-3.719 8.286-8.285 8.286zm4.544-6.206c-.25-.126-1.473-.728-1.702-.811-.228-.083-.393-.124-.56.124-.166.249-.644.81-.79.976-.145.167-.29.187-.539.063-.249-.125-1.052-.388-2.003-1.236-.74-.661-1.24-1.476-1.386-1.726-.145-.25-.016-.384.11-.508.112-.111.249-.291.373-.437.124-.145.165-.249.249-.415.083-.167.042-.312-.021-.437s-.561-1.35-.769-1.85c-.2-.482-.406-.418-.56-.425-.158-.006-.317-.01-.476-.009a.917.917 0 0 0-.665.311c-.229.25-.872.852-.872 2.078s.893 2.41 1.018 2.577c.124.167 1.756 2.682 4.255 3.761.595.256 1.059.41 1.42.525.596.19 1.14.162 1.569.099.478-.071 1.473-.602 1.681-1.184.208-.582.208-1.08.145-1.184-.062-.105-.23-.168-.477-.292" fill="#FBFDFD"/>
</svg>
